#!OML:ASF X:\für Bonn\!DataBase\2005_08_10_Bjorn_Final\c3d\bjorn.ASF
:FULLY-SPECIFIED
:DEGREES
61
root 0.27666 19.2595 2.47534 -174.81 -1.33652 175.948
lowerback -16.4541 0.668755 -4.17732
upperback 0.593065 1.76644 -2.46922
thorax 9.86714 0.621019 0.108568
lowerneck 17.6298 -3.79904 6.27292
upperneck 25.8279 -10.7494 -0.139549
head 5.06287 -6.93268 -1.16272
rclavicle 1.62693e-014 -3.29983e-014
rhumerus -1033.35 -22.0701 1076.44
rradius 29.9712
rwrist 28.4345
rhand -22.6692 13.6938
rfingers 7.12502
rthumb 3.76252 -16.2527
lclavicle 1.62693e-014 -3.29983e-014
lhumerus 63.3708 27.073 11.359
lradius 22.1863
lwrist -42.5821
lhand -16.7971 7.31691
lfingers 7.12502
lthumb 9.43107 37.0859
rfemur -13.0821 -12.0579 10.128
rtibia 30.7711
rfoot -17.1642 11.7804
rtoes -19.0313
lfemur -11.284 4.46666 -20.0858
ltibia 27.4708
lfoot -11.7691 -11.8464
ltoes -0.760107
62
root 0.282104 19.2611 2.43572 -174.741 -1.35387 175.947
lowerback -16.6678 0.626045 -4.3118
upperback 0.508696 1.73522 -2.45182
thorax 9.89187 0.595269 0.197912
lowerneck 17.8669 -3.84065 6.39653
upperneck 25.9328 -10.8716 -0.169888
head 5.06129 -7.01358 -1.18587
rclavicle -1.25048e-014 1.27222e-014
rhumerus -1034.57 -24.2596 1076.96
rradius 30.2271
rwrist 29.0813
rhand -22.9491 13.5988
rfingers 7.12502
rthumb 3.49228 -16.3523
lclavicle -1.25048e-014 1.27222e-014
lhumerus 62.7965 29.3225 11.7175
lradius 22.142
lwrist -43.6838
lhand -16.6494 7.44068
lfingers 7.12502
lthumb 9.57359 37.2032
rfemur -13.0496 -12.1119 10.1184
rtibia 30.8203
rfoot -17.1772 11.8725
rtoes -19.0747
lfemur -11.2371 4.41446 -20.0495
ltibia 27.4736
lfoot -11.7402 -11.8644
ltoes -0.850491
63
root 0.2882 19.2633 2.39885 -174.676 -1.36048 175.943
lowerback -16.7721 0.582344 -4.45657
upperback 0.3886 1.69483 -2.43443
thorax 9.81457 0.566569 0.289563
lowerneck 18.1142 -3.84462 6.4933
upperneck 26.0881 -10.976 -0.162243
head 5.07943 -7.09184 -1.19563
rclavicle 1.67352e-014 -4.49253e-014
rhumerus -1036.05 -26.2178 1077.92
rradius 30.5203
rwrist 29.1262
rhand -23.288 13.3665
rfingers 7.12502
rthumb 3.16493 -16.5898
lclavicle 1.67352e-014 -4.49253e-014
lhumerus 62.0391 31.4383 11.8333
lradius 22.1157
lwrist -44.0461
lhand -16.6823 7.82953
lfingers 7.12502
lthumb 9.54185 37.5935
rfemur -13.0216 -12.2436 10.1075
rtibia 30.8716
rfoot -17.1392 12.036
rtoes -19.2291
lfemur -11.1908 4.40711 -20.0181
ltibia 27.4809
lfoot -11.7055 -11.909
ltoes -0.969353
64
root 0.294624 19.2673 2.36437 -174.591 -1.40237 175.96
lowerback -16.8945 0.519087 -4.59266
upperback 0.304242 1.63074 -2.38788
thorax 9.78763 0.526582 0.402388
lowerneck 18.3449 -3.8473 6.4889
upperneck 26.1562 -11.0606 -0.124132
head 5.07549 -7.15924 -1.17592
rclavicle 1.49834e-014 9.93923e-015
rhumerus -1037.62 -28.2591 1078.94
rradius 30.886
rwrist 29.0038
rhand -23.6294 12.9057
rfingers 7.12502
rthumb 2.83529 -17.0552
lclavicle 1.49834e-014 9.93923e-015
lhumerus 61.2771 33.7016 12.0505
lradius 22.1099
lwrist -44.3257
lhand -16.7794 8.19212
lfingers 7.12502
lthumb 9.44824 37.9603
rfemur -13.0202 -12.3312 10.1304
rtibia 30.9211
rfoot -17.136 12.1438
rtoes -19.2742
lfemur -11.1876 4.40603 -19.9543
ltibia 27.4891
lfoot -11.6162 -11.9915
ltoes -1.07327
65
root 0.300521 19.2716 2.33248 -174.478 -1.42116 175.974
lowerback -17.0394 0.456878 -4.73017
upperback 0.246012 1.57249 -2.33673
thorax 9.80234 0.488764 0.522584
lowerneck 18.5343 -3.84742 6.45249
upperneck 26.2343 -11.1481 -0.079043
head 5.08169 -7.22748 -1.151
rclavicle 9.50439e-015 -1.31198e-014
rhumerus -1039.18 -30.5313 1079.74
rradius 31.2461
rwrist 29.1099
rhand -23.9854 12.4396
rfingers 7.12502
rthumb 2.49143 -17.5256
lclavicle 9.50439e-015 -1.31198e-014
lhumerus 60.6324 36.1035 12.4802
lradius 22.1059
lwrist -44.6706
lhand -16.8709 8.55473
lfingers 7.12502
lthumb 9.35987 38.3269
rfemur -13.0604 -12.4748 10.1534
rtibia 30.9642
rfoot -17.0931 12.2756
rtoes -19.6011
lfemur -11.224 4.39292 -19.9103
ltibia 27.5121
lfoot -11.5628 -12.0363
ltoes -1.18503
66
root 0.306773 19.278 2.30375 -174.387 -1.4917 176.01
lowerback -17.1218 0.406114 -4.82051
upperback 0.207077 1.52087 -2.31269
thorax 9.80506 0.457849 0.587583
lowerneck 18.7108 -3.87695 6.4596
upperneck 26.2953 -11.2671 -0.0136489
head 5.08367 -7.30404 -1.12556
rclavicle -7.82715e-016 3.97569e-016
rhumerus -1041.01 -32.7895 1080.64
rradius 31.6489
rwrist 28.814
rhand -24.3538 12.0823
rfingers 7.12502
rthumb 2.13568 -17.8868
lclavicle -7.82715e-016 3.97569e-016
lhumerus 60.0254 38.5208 12.8745
lradius 22.139
lwrist -44.7054
lhand -17.066 8.86696
lfingers 7.12502
lthumb 9.17168 38.6475
rfemur -13.0679 -12.5908 10.201
rtibia 31.0056
rfoot -17.0487 12.3464
rtoes -19.6683
lfemur -11.2565 4.39058 -19.826
ltibia 27.5345
lfoot -11.4592 -12.1367
ltoes -1.16422
67
root 0.31277 19.2843 2.27538 -174.268 -1.53725 176.034
lowerback -17.2442 0.339026 -4.94207
upperback 0.179908 1.45602 -2.26093
thorax 9.84279 0.417991 0.697408
lowerneck 18.8639 -3.86407 6.32765
upperneck 26.3734 -11.3543 0.069833
head 5.10021 -7.37482 -1.07478
rclavicle 1.10947e-014 -4.85035e-014
rhumerus -1042.95 -34.9498 1081.69
rradius 32.0531
rwrist 27.7036
rhand -24.7019 11.8243
rfingers 7.12502
rthumb 1.79951 -18.1478
lclavicle 1.10947e-014 -4.85035e-014
lhumerus 59.3557 41.0205 13.2985
lradius 22.2248
lwrist -44.748
lhand -17.2156 9.15885
lfingers 7.12502
lthumb 9.02726 38.9457
rfemur -13.1156 -12.7782 10.2328
rtibia 31.036
rfoot -16.9661 12.4996
rtoes -19.7906
lfemur -11.3231 4.37414 -19.7651
ltibia 27.5701
lfoot -11.3799 -12.1911
ltoes -1.34124
68
root 0.318701 19.291 2.25013 -174.159 -1.60534 176.053
lowerback -17.3068 0.272354 -5.06538
upperback 0.156919 1.38943 -2.21002
thorax 9.85165 0.378335 0.806287
lowerneck 18.9551 -3.85964 6.20343
upperneck 26.4657 -11.446 0.138314
head 5.12811 -7.44333 -1.03311
rclavicle 1.0635e-014 -2.34566e-014
rhumerus -1045.05 -37.1429 1082.88
rradius 32.3793
rwrist 26.1579
rhand -25.068 11.8138
rfingers 7.12502
rthumb 1.44591 -18.1611
lclavicle 1.0635e-014 -2.34566e-014
lhumerus 58.1685 43.3312 13.0691
lradius 22.3696
lwrist -43.7564
lhand -17.5143 9.45822
lfingers 7.12502
lthumb 8.73905 39.2573
rfemur -13.1479 -12.9231 10.2638
rtibia 31.0591
rfoot -16.9087 12.588
rtoes -19.9373
lfemur -11.3888 4.36162 -19.7052
ltibia 27.6088
lfoot -11.271 -12.3014
ltoes -1.28031
69
root 0.324783 19.2991 2.22597 -174.049 -1.66936 176.114
lowerback -17.3376 0.193816 -5.16544
upperback 0.11525 1.29699 -2.11937
thorax 9.823 0.328322 0.938746
lowerneck 19.1227 -3.81698 5.95825
upperneck 26.5108 -11.5124 0.283383
head 5.13998 -7.51071 -0.943184
rclavicle 1.10325e-014 -2.66371e-014
rhumerus -1047.37 -39.2085 1084.32
rradius 32.7194
rwrist 24.012
rhand -25.4256 11.9651
rfingers 7.12502
rthumb 1.10052 -18.0118
lclavicle 1.10325e-014 -2.66371e-014
lhumerus 56.4505 45.5134 12.2905
lradius 22.5322
lwrist -42.37
lhand -17.9566 9.78044
lfingers 7.12502
lthumb 8.31222 39.5969
rfemur -13.1883 -13.0587 10.3447
rtibia 31.0759
rfoot -16.8566 12.6711
rtoes -20.2724
lfemur -11.4773 4.38769 -19.6045
ltibia 27.6584
lfoot -11.1677 -12.3836
ltoes -1.40772
70
root 0.330376 19.3075 2.20355 -173.923 -1.7648 176.152
lowerback -17.3879 0.124287 -5.25905
upperback 0.107699 1.22234 -2.0682
thorax 9.84401 0.28659 1.02895
lowerneck 19.2115 -3.78534 5.76982
upperneck 26.5577 -11.5821 0.458178
head 5.16273 -7.56694 -0.856444
rclavicle -9.52924e-015 1.31198e-014
rhumerus -1050 -41.3564 1085.86
rradius 32.9997
rwrist 22.0272
rhand -26.4652 11.2864
rfingers 7.12502
rthumb 0.0964402 -18.6934
lclavicle -9.52924e-015 1.31198e-014
lhumerus 54.5646 47.7115 11.2901
lradius 22.7142
lwrist -40.9906
lhand -18.5027 10.3463
lfingers 7.12502
lthumb 7.78516 40.183
rfemur -13.245 -13.1984 10.4006
rtibia 31.0944
rfoot -16.7795 12.7317
rtoes -20.2926
lfemur -11.5842 4.35239 -19.5262
ltibia 27.7052
lfoot -11.0494 -12.4854
ltoes -1.37133
71
root 0.338044 19.3148 2.18321 -173.812 -1.8786 176.163
lowerback -17.3882 0.031565 -5.40185
upperback 0.0934516 1.12226 -2.01204
thorax 9.83018 0.231078 1.14558
lowerneck 19.3362 -3.72568 5.56443
upperneck 26.6139 -11.6215 0.622985
head 5.1844 -7.6138 -0.769642
rclavicle -2.03754e-015 -6.75868e-015
rhumerus -1052.9 -43.4706 1087.52
rradius 33.4019
rwrist 19.8027
rhand -27.5505 10.3463
rfingers 7.12502
rthumb -0.951745 -19.6313
lclavicle -2.03754e-015 -6.75868e-015
lhumerus 52.2563 49.823 9.87099
lradius 22.9363
lwrist -39.3121
lhand -19.1486 11.2717
lfingers 7.12502
lthumb 7.16174 41.1305
rfemur -13.287 -13.384 10.4373
rtibia 31.1084
rfoot -16.7384 12.786
rtoes -20.658
lfemur -11.6891 4.33933 -19.4648
ltibia 27.7596
lfoot -10.9245 -12.606
ltoes -1.38091
